<svg width="49" height="49" viewBox="0 0 49 49" fill="none" xmlns="http://www.w3.org/2000/svg">
<path d="M21.1384 16.1756C21.1384 17.3901 21.1384 18.5673 21.5244 19.6696C17.4669 24.3968 5.7558 37.8404 5.7558 37.8404L6.02881 41.2316C6.02881 41.2316 9.3049 44.3146 9.79443 43.8475C11.2442 42.4461 12.1291 41.4932 12.1291 41.4932L12.8107 37.4434L17.2457 37.1192L17.6015 32.747L22.2737 32.6582L22.3198 27.9787L27.2801 28.1749L28.1274 26.4148C29.5866 27.0407 30.9139 27.293 32.6179 27.293C39.0665 27.293 44.2913 22.3042 44.2913 16.1569C44.2913 10.0097 39.0628 5.03961 32.6141 5.03961C26.1655 5.03961 21.1384 10.0284 21.1384 16.1756ZM38.9074 14.0082C38.9074 14.7261 38.6929 15.4278 38.2911 16.0246C37.8892 16.6215 37.318 17.0867 36.6497 17.3614C35.9814 17.6361 35.246 17.708 34.5366 17.568C33.8271 17.4279 33.1754 17.0822 32.6639 16.5746C32.1524 16.067 31.8041 15.4203 31.663 14.7163C31.5219 14.0122 31.5943 13.2825 31.8711 12.6193C32.1479 11.9561 32.6167 11.3892 33.2181 10.9904C33.8196 10.5916 34.5267 10.3787 35.2501 10.3787C35.7305 10.3782 36.2063 10.4718 36.6503 10.654C37.0942 10.8362 37.4976 11.1036 37.8373 11.4407C38.177 11.7778 38.4464 12.1781 38.63 12.6187C38.8137 13.0593 38.9079 13.5314 38.9074 14.0082Z" fill="#2B9E21"/>
</svg>
