<svg width="45" height="44" viewBox="0 0 45 44" fill="none" xmlns="http://www.w3.org/2000/svg">
<path d="M22.8429 4.8186C13.0274 4.8186 5.04175 12.7434 5.04175 22.484C5.04175 32.2246 13.0274 40.1494 22.8429 40.1494C32.6583 40.1494 40.644 32.2246 40.644 22.484C40.644 12.7434 32.6583 4.8186 22.8429 4.8186ZM23.0141 12.9719C24.2328 12.9719 25.4241 13.3305 26.4374 14.0024C27.4508 14.6743 28.2406 15.6294 28.7069 16.7467C29.1733 17.8641 29.2953 19.0936 29.0576 20.2798C28.8198 21.466 28.233 22.5556 27.3712 23.4108C26.5094 24.2659 25.4115 24.8483 24.2162 25.0843C23.0209 25.3202 21.7819 25.1991 20.656 24.7363C19.53 24.2735 18.5677 23.4897 17.8906 22.4841C17.2135 21.4785 16.8521 20.2962 16.8521 19.0868C16.8521 17.465 17.5013 15.9097 18.6569 14.7629C19.8125 13.6161 21.3798 12.9719 23.0141 12.9719ZM22.8429 37.4317C20.7653 37.4325 18.7102 37.0058 16.8073 36.1784C14.9044 35.351 13.1951 34.1409 11.7874 32.6247C12.5439 28.7366 19.3391 27.9195 22.8429 27.9195C26.3466 27.9195 33.1419 28.7366 33.8984 32.6238C32.4909 34.1404 30.7816 35.3507 28.8787 36.1782C26.9758 37.0058 24.9205 37.4326 22.8429 37.4317Z" fill="#2B9E21"/>
</svg>
